<?xml version="1.0" encoding="UTF-8"?>
<svg version="1.1" xmlns="http://www.w3.org/2000/svg" width="442" height="442">
<path d="M0 0 C34.32 0 68.64 0 104 0 C104 36.3 104 72.6 104 110 C119.84 110 135.68 110 152 110 C152 127.82 152 145.64 152 164 C101.84 164 51.68 164 0 164 C0 109.88 0 55.76 0 0 Z " fill="#D79B7A" transform="translate(81,84)"/>
<path d="M0 0 C34.32 0 68.64 0 104 0 C104 44.22 104 88.44 104 134 C69.68 134 35.36 134 0 134 C0 89.78 0 45.56 0 0 Z " fill="#477E58" transform="translate(270,60)"/>
<path d="M0 0 C34.32 0 68.64 0 104 0 C104 43.89 104 87.78 104 133 C69.68 133 35.36 133 0 133 C0 89.11 0 45.22 0 0 Z " fill="#686688" transform="translate(270,226)"/>
<path d="M0 0 C34.32 0 68.64 0 104 0 C104 34.32 104 68.64 104 104 C69.68 104 35.36 104 0 104 C0 69.68 0 35.36 0 0 Z " fill="#AA535A" transform="translate(81,283)"/>
</svg>
